<svg xmlns="http://www.w3.org/2000/svg" viewBox="0 0 128 128">
  <defs>
    <linearGradient id="bg" x1="0" y1="0" x2="1" y2="1">
      <stop offset="0%" stop-color="#6ec6ff"/>
      <stop offset="100%" stop-color="#3b82f6"/>
    </linearGradient>
    <linearGradient id="cloud" x1="0" y1="0" x2="0" y2="1">
      <stop offset="0%" stop-color="#ffffff" stop-opacity="1"/>
      <stop offset="100%" stop-color="#e5e7eb" stop-opacity="0.95"/>
    </linearGradient>
    <linearGradient id="rain" x1="0" y1="0" x2="0" y2="1">
      <stop offset="0%" stop-color="#9cd4ff" stop-opacity="0.9"/>
      <stop offset="100%" stop-color="#60a5fa" stop-opacity="0.9"/>
    </linearGradient>
  </defs>
  <rect width="128" height="128" rx="26" fill="url(#bg)"/>
  <g transform="translate(14 20)">
    <path d="M28 46c-8 0-15-7-15-16s7-16 16-16c5 0 9 2 12 6 2-6 8-10 14-10 9 0 16 7 16 16 0 1 0 3-1 4h2c8 0 14 6 14 14s-6 14-14 14H28Z" fill="url(#cloud)"/>
    <path d="M34 70c0-2 2-4 4-4s4 2 4 4-2 8-4 8-4-6-4-8Zm16 0c0-2 2-4 4-4s4 2 4 4-2 8-4 8-4-6-4-8Zm16 0c0-2 2-4 4-4s4 2 4 4-2 8-4 8-4-6-4-8Z" fill="url(#rain)"/>
  </g>
</svg>
